<?xml version="1.0" standalone="no"?>
<!DOCTYPE svg PUBLIC "-//W3C//DTD SVG 20010904//EN"
 "http://www.w3.org/TR/2001/REC-SVG-20010904/DTD/svg10.dtd">
<svg version="1.0" xmlns="http://www.w3.org/2000/svg"
 width="16.000000pt" height="16.000000pt" viewBox="0 0 16.000000 16.000000"
 preserveAspectRatio="xMidYMid meet">
<metadata>
Created by potrace 1.11, written by Peter Selinger 2001-2013
</metadata>
<g transform="translate(0.000000,16.000000) scale(0.002286,-0.002286)"
fill="#000000" stroke="none">
<path d="M6205 6984 c-115 -25 -228 -87 -316 -174 -132 -131 -190 -264 -195
-446 -2 -105 6 -154 42 -265 5 -14 -38 -58 -401 -404 -34 -33 -143 -137 -241
-231 -99 -94 -203 -194 -233 -222 l-54 -51 -55 36 c-488 312 -1145 314 -1630
6 -83 -53 -200 -144 -252 -196 l-44 -45 -86 66 c-47 36 -99 77 -116 91 -17 14
-92 73 -167 131 -76 58 -137 108 -137 112 0 3 9 27 20 52 31 72 52 192 54 306
9 461 -327 858 -784 927 -59 9 -222 8 -285 -2 -76 -11 -223 -62 -292 -101 -71
-40 -193 -134 -238 -185 -119 -133 -200 -298 -232 -474 -9 -52 -9 -238 0 -293
45 -282 220 -530 468 -666 73 -39 181 -82 231 -90 18 -3 54 -9 81 -14 51 -10
228 -9 292 2 111 19 255 78 355 146 l56 38 114 -89 c63 -49 149 -115 189 -146
41 -32 107 -84 147 -115 l72 -57 -28 -58 c-38 -77 -85 -220 -104 -313 -32
-160 -34 -190 -32 -355 5 -295 69 -520 219 -768 l48 -80 -78 -80 c-43 -45 -85
-88 -93 -97 -8 -9 -96 -102 -196 -206 -100 -104 -203 -211 -229 -239 -26 -27
-83 -88 -128 -134 l-81 -84 -30 18 c-128 76 -261 127 -421 161 -52 11 -328 13
-390 3 -500 -81 -892 -456 -1001 -954 -29 -135 -24 -396 10 -520 2 -5 6 -23
10 -40 70 -275 283 -556 541 -711 97 -59 249 -121 340 -140 128 -26 177 -31
296 -29 165 3 207 9 364 58 161 49 331 154 464 286 72 71 191 218 191 235 0 3
13 27 29 55 33 55 97 219 106 271 3 18 8 36 10 40 2 3 7 33 10 65 4 33 9 63
11 67 6 9 6 227 0 253 -2 11 -7 41 -10 67 -15 111 -94 330 -148 410 -10 14
-18 31 -18 37 0 6 -4 11 -10 11 -5 0 -10 7 -10 15 0 8 -4 15 -10 15 -24 0 -5
30 62 101 40 42 154 161 253 263 98 103 201 211 228 239 180 191 231 240 243
231 33 -23 152 -103 179 -119 110 -69 301 -140 471 -176 164 -35 446 -34 604
2 25 6 56 13 70 15 40 8 201 65 243 86 22 11 40 18 42 16 1 -2 18 -23 37 -48
19 -25 104 -137 189 -250 85 -113 279 -369 430 -570 l275 -365 -47 -78 c-46
-78 -91 -193 -104 -272 -11 -62 -13 -210 -3 -270 42 -269 223 -507 472 -620
121 -54 195 -70 341 -69 72 0 146 5 165 12 19 6 47 13 61 16 39 6 170 69 231
110 165 112 294 303 337 500 35 159 17 349 -46 498 -28 65 -102 180 -152 235
-85 92 -224 180 -348 220 -101 32 -132 36 -243 37 -111 0 -174 -8 -248 -33
l-54 -19 -22 26 c-11 13 -26 30 -31 36 -6 6 -22 27 -35 46 -13 19 -27 37 -30
40 -3 3 -17 21 -30 40 -13 19 -29 40 -35 46 -5 7 -82 107 -170 224 -88 116
-253 334 -366 483 l-207 272 68 70 c480 492 572 1243 225 1840 -16 28 -48 78
-73 112 -25 37 -40 68 -36 75 4 6 36 39 72 72 36 34 88 84 117 111 29 28 95
91 147 140 52 50 173 165 269 256 96 92 203 193 238 226 l65 60 55 -22 c86
-34 181 -48 282 -42 164 12 299 75 419 196 131 132 196 303 185 489 -5 103
-21 165 -63 253 -40 83 -53 100 -139 185 -53 52 -95 83 -156 113 -45 22 -91
41 -101 41 -9 0 -26 5 -37 10 -33 18 -216 20 -294 4z"/>
</g>
</svg>
